# xmcd
#
# Track frame offsets: 
#        150
#        17277
#        35496
#        51075
#        72249
#        94945
#        112614
#        136142
#        156845
#        175567
#        194297
#        213546
#        234622
#        250282
#        268991
#        289354
#        305108
#        325227
#
# Disc length: 4594 seconds
#
# Revision: 0
# Processed by: cddbd v1.5.2PL0 Copyright (c) Steve Scherf et al.
# Submitted via: ExactAudioCopyFreeDBPlugin 1.0
#
DISCID=0311f012
DTITLE=Banks - Goddess
DYEAR=2014
DGENRE=R&B
TTITLE0=Alibi
TTITLE1=Goddess
TTITLE2=Waiting Game
TTITLE3=Brain
TTITLE4=This Is What It Feels Like
TTITLE5=You Should Know Where I'm Coming From
TTITLE6=Stick
TTITLE7=Fuck Em Only We Know
TTITLE8=Drowning
TTITLE9=Beggin For Thread
TTITLE10=Change
TTITLE11=Someone New
TTITLE12=Warm Water
TTITLE13=Under The Table
TTITLE14=And I Drove You Crazy
TTITLE15=Fall Over
TTITLE16=Before I Ever Met You
TTITLE17=Bedroom Wall
EXTD=
EXTT0=
EXTT1=
EXTT2=
EXTT3=
EXTT4=
EXTT5=
EXTT6=
EXTT7=
EXTT8=
EXTT9=
EXTT10=
EXTT11=
EXTT12=
EXTT13=
EXTT14=
EXTT15=
EXTT16=
EXTT17=
PLAYORDER=
